<svg width="200" height="185" viewBox="0 0 200 185" fill="none" xmlns="http://www.w3.org/2000/svg">
<g clip-path="url(#clip0)">
<g filter="url(#filter0_d)">
<path d="M34.45 138L102 21L169.55 138H34.45Z" stroke="#4C4C4C" stroke-width="22"/>
</g>
<g filter="url(#filter1_d)">
<path d="M98.336 99.128V123H95.264V108.024L86.752 120.088H86.688L78.336 108.44V123H75.328V99.128H75.36L86.752 115.256L98.304 99.128H98.336ZM125.144 99.864V123.768H125.048L108.056 106.52L108.12 123H104.984V99.16H105.144L122.104 116.6L122.04 99.864H125.144Z" fill="#389790"/>
</g>
<g filter="url(#filter2_d)">
<path d="M83.73 159.21C82.82 158.72 81.8517 158.323 80.825 158.02C79.7983 157.717 78.83 157.565 77.92 157.565C76.5433 157.565 75.4467 157.88 74.63 158.51C73.8367 159.117 73.44 159.957 73.44 161.03C73.44 162.08 73.9067 162.943 74.84 163.62C75.7967 164.273 77.15 164.927 78.9 165.58C80.2067 166.047 81.3033 166.56 82.19 167.12C83.1 167.657 83.8467 168.415 84.43 169.395C85.0367 170.352 85.34 171.577 85.34 173.07C85.34 174.423 85.0017 175.648 84.325 176.745C83.6483 177.842 82.68 178.705 81.42 179.335C80.1833 179.965 78.725 180.28 77.045 180.28C75.4817 180.28 73.9767 180.035 72.53 179.545C71.0833 179.032 69.8117 178.39 68.715 177.62L70.22 174.925C71.0833 175.578 72.1217 176.138 73.335 176.605C74.5483 177.048 75.68 177.27 76.73 177.27C78.0833 177.27 79.2617 176.92 80.265 176.22C81.2917 175.52 81.805 174.482 81.805 173.105C81.805 171.938 81.3733 171.017 80.51 170.34C79.67 169.64 78.48 168.987 76.94 168.38C75.5167 167.843 74.3267 167.318 73.37 166.805C72.4367 166.292 71.6317 165.592 70.955 164.705C70.2783 163.795 69.94 162.663 69.94 161.31C69.94 159.327 70.6283 157.728 72.005 156.515C73.405 155.278 75.2133 154.625 77.43 154.555C80.16 154.555 82.6917 155.232 85.025 156.585L83.73 159.21ZM88.9461 172.615C88.9461 171.192 89.2844 169.897 89.9611 168.73C90.6611 167.54 91.6178 166.607 92.8311 165.93C94.0678 165.253 95.4561 164.915 96.9961 164.915C98.5361 164.915 99.9011 165.253 101.091 165.93C102.304 166.607 103.238 167.528 103.891 168.695C104.568 169.862 104.906 171.168 104.906 172.615C104.906 174.062 104.568 175.38 103.891 176.57C103.238 177.737 102.304 178.658 101.091 179.335C99.8778 180.012 98.4894 180.35 96.9261 180.35C95.4094 180.35 94.0444 180.035 92.8311 179.405C91.6178 178.752 90.6611 177.842 89.9611 176.675C89.2844 175.508 88.9461 174.155 88.9461 172.615ZM92.2361 172.65C92.2361 173.56 92.4344 174.4 92.8311 175.17C93.2511 175.94 93.8111 176.547 94.5111 176.99C95.2344 177.433 96.0278 177.655 96.8911 177.655C98.2444 177.655 99.3644 177.177 100.251 176.22C101.138 175.263 101.581 174.073 101.581 172.65C101.581 171.227 101.138 170.037 100.251 169.08C99.3644 168.1 98.2444 167.61 96.8911 167.61C96.0044 167.61 95.2111 167.843 94.5111 168.31C93.8111 168.753 93.2511 169.36 92.8311 170.13C92.4344 170.9 92.2361 171.74 92.2361 172.65ZM110.468 168.415H107.983V165.475H110.468V159.385C110.468 157.285 110.947 155.675 111.903 154.555C112.86 153.435 114.26 152.875 116.103 152.875C116.617 152.875 117.165 152.957 117.748 153.12C118.332 153.26 118.845 153.47 119.288 153.75L117.888 156.13C117.538 155.757 117.048 155.57 116.418 155.57C115.532 155.57 114.855 155.873 114.388 156.48C113.945 157.087 113.723 158.067 113.723 159.42V165.475H118.343V168.415H113.723V180H110.468V168.415ZM127.264 159.14V165.545H131.219V168.135H127.264V180H123.974V168.135H121.314V165.545H123.974V159.14H127.264Z" fill="#668080"/>
</g>
</g>
<defs>
<filter id="filter0_d" x="11.3975" y="-1" width="181.205" height="158" filterUnits="userSpaceOnUse" color-interpolation-filters="sRGB">
<feFlood flood-opacity="0" result="BackgroundImageFix"/>
<feColorMatrix in="SourceAlpha" type="matrix" values="0 0 0 0 0 0 0 0 0 0 0 0 0 0 0 0 0 0 127 0"/>
<feOffset dy="4"/>
<feGaussianBlur stdDeviation="2"/>
<feColorMatrix type="matrix" values="0 0 0 0 0 0 0 0 0 0 0 0 0 0 0 0 0 0 0.25 0"/>
<feBlend mode="normal" in2="BackgroundImageFix" result="effect1_dropShadow"/>
<feBlend mode="normal" in="SourceGraphic" in2="effect1_dropShadow" result="shape"/>
</filter>
<filter id="filter1_d" x="71.328" y="99.128" width="57.8162" height="32.64" filterUnits="userSpaceOnUse" color-interpolation-filters="sRGB">
<feFlood flood-opacity="0" result="BackgroundImageFix"/>
<feColorMatrix in="SourceAlpha" type="matrix" values="0 0 0 0 0 0 0 0 0 0 0 0 0 0 0 0 0 0 127 0"/>
<feOffset dy="4"/>
<feGaussianBlur stdDeviation="2"/>
<feColorMatrix type="matrix" values="0 0 0 0 0 0 0 0 0 0 0 0 0 0 0 0 0 0 0.25 0"/>
<feBlend mode="normal" in2="BackgroundImageFix" result="effect1_dropShadow"/>
<feBlend mode="normal" in="SourceGraphic" in2="effect1_dropShadow" result="shape"/>
</filter>
<filter id="filter2_d" x="64.715" y="152.875" width="70.5043" height="35.475" filterUnits="userSpaceOnUse" color-interpolation-filters="sRGB">
<feFlood flood-opacity="0" result="BackgroundImageFix"/>
<feColorMatrix in="SourceAlpha" type="matrix" values="0 0 0 0 0 0 0 0 0 0 0 0 0 0 0 0 0 0 127 0"/>
<feOffset dy="4"/>
<feGaussianBlur stdDeviation="2"/>
<feColorMatrix type="matrix" values="0 0 0 0 0 0 0 0 0 0 0 0 0 0 0 0 0 0 0.25 0"/>
<feBlend mode="normal" in2="BackgroundImageFix" result="effect1_dropShadow"/>
<feBlend mode="normal" in="SourceGraphic" in2="effect1_dropShadow" result="shape"/>
</filter>
<clipPath id="clip0">
<rect width="200" height="185" fill="white"/>
</clipPath>
</defs>
</svg>
