<svg width="200" height="184" viewBox="0 0 200 184" fill="none" xmlns="http://www.w3.org/2000/svg">
<g clip-path="url(#clip0)">
<rect width="200" height="184" fill="#E5E5E5"/>
<g filter="url(#filter0_d)">
<path d="M100 0L186.603 150H13.3975L100 0Z" fill="#4C4C4C"/>
<path d="M14.2635 149.5L100 1L185.737 149.5H14.2635Z" stroke="#E5E5E5"/>
</g>
<path d="M100 50L143.301 125H56.6987L100 50Z" fill="#E5E5E5"/>
<rect x="25" y="105" width="50" height="20" fill="#E5E5E5"/>
<path d="M96.336 99.128V123H93.264V108.024L84.752 120.088H84.688L76.336 108.44V123H73.328V99.128H73.36L84.752 115.256L96.304 99.128H96.336ZM123.144 99.864V123.768H123.048L106.056 106.52L106.12 123H102.984V99.16H103.144L120.104 116.6L120.04 99.864H123.144Z" fill="#389790"/>
<path d="M82.73 159.21C81.82 158.72 80.8517 158.323 79.825 158.02C78.7983 157.717 77.83 157.565 76.92 157.565C75.5433 157.565 74.4467 157.88 73.63 158.51C72.8367 159.117 72.44 159.957 72.44 161.03C72.44 162.08 72.9067 162.943 73.84 163.62C74.7967 164.273 76.15 164.927 77.9 165.58C79.2067 166.047 80.3033 166.56 81.19 167.12C82.1 167.657 82.8467 168.415 83.43 169.395C84.0367 170.352 84.34 171.577 84.34 173.07C84.34 174.423 84.0017 175.648 83.325 176.745C82.6483 177.842 81.68 178.705 80.42 179.335C79.1833 179.965 77.725 180.28 76.045 180.28C74.4817 180.28 72.9767 180.035 71.53 179.545C70.0833 179.032 68.8117 178.39 67.715 177.62L69.22 174.925C70.0833 175.578 71.1217 176.138 72.335 176.605C73.5483 177.048 74.68 177.27 75.73 177.27C77.0833 177.27 78.2617 176.92 79.265 176.22C80.2917 175.52 80.805 174.482 80.805 173.105C80.805 171.938 80.3733 171.017 79.51 170.34C78.67 169.64 77.48 168.987 75.94 168.38C74.5167 167.843 73.3267 167.318 72.37 166.805C71.4367 166.292 70.6317 165.592 69.955 164.705C69.2783 163.795 68.94 162.663 68.94 161.31C68.94 159.327 69.6283 157.728 71.005 156.515C72.405 155.278 74.2133 154.625 76.43 154.555C79.16 154.555 81.6917 155.232 84.025 156.585L82.73 159.21ZM87.9461 172.615C87.9461 171.192 88.2844 169.897 88.9611 168.73C89.6611 167.54 90.6178 166.607 91.8311 165.93C93.0678 165.253 94.4561 164.915 95.9961 164.915C97.5361 164.915 98.9011 165.253 100.091 165.93C101.304 166.607 102.238 167.528 102.891 168.695C103.568 169.862 103.906 171.168 103.906 172.615C103.906 174.062 103.568 175.38 102.891 176.57C102.238 177.737 101.304 178.658 100.091 179.335C98.8778 180.012 97.4894 180.35 95.9261 180.35C94.4094 180.35 93.0444 180.035 91.8311 179.405C90.6178 178.752 89.6611 177.842 88.9611 176.675C88.2844 175.508 87.9461 174.155 87.9461 172.615ZM91.2361 172.65C91.2361 173.56 91.4344 174.4 91.8311 175.17C92.2511 175.94 92.8111 176.547 93.5111 176.99C94.2344 177.433 95.0278 177.655 95.8911 177.655C97.2444 177.655 98.3644 177.177 99.2511 176.22C100.138 175.263 100.581 174.073 100.581 172.65C100.581 171.227 100.138 170.037 99.2511 169.08C98.3644 168.1 97.2444 167.61 95.8911 167.61C95.0044 167.61 94.2111 167.843 93.5111 168.31C92.8111 168.753 92.2511 169.36 91.8311 170.13C91.4344 170.9 91.2361 171.74 91.2361 172.65ZM109.468 168.415H106.983V165.475H109.468V159.385C109.468 157.285 109.947 155.675 110.903 154.555C111.86 153.435 113.26 152.875 115.103 152.875C115.617 152.875 116.165 152.957 116.748 153.12C117.332 153.26 117.845 153.47 118.288 153.75L116.888 156.13C116.538 155.757 116.048 155.57 115.418 155.57C114.532 155.57 113.855 155.873 113.388 156.48C112.945 157.087 112.723 158.067 112.723 159.42V165.475H117.343V168.415H112.723V180H109.468V168.415ZM126.264 159.14V165.545H130.219V168.135H126.264V180H122.974V168.135H120.314V165.545H122.974V159.14H126.264Z" fill="#668080"/>
</g>
<defs>
<filter id="filter0_d" x="9.39746" y="0" width="181.205" height="158" filterUnits="userSpaceOnUse" color-interpolation-filters="sRGB">
<feFlood flood-opacity="0" result="BackgroundImageFix"/>
<feColorMatrix in="SourceAlpha" type="matrix" values="0 0 0 0 0 0 0 0 0 0 0 0 0 0 0 0 0 0 127 0"/>
<feOffset dy="4"/>
<feGaussianBlur stdDeviation="2"/>
<feColorMatrix type="matrix" values="0 0 0 0 0 0 0 0 0 0 0 0 0 0 0 0 0 0 0.25 0"/>
<feBlend mode="normal" in2="BackgroundImageFix" result="effect1_dropShadow"/>
<feBlend mode="normal" in="SourceGraphic" in2="effect1_dropShadow" result="shape"/>
</filter>
<clipPath id="clip0">
<rect width="200" height="184" fill="white"/>
</clipPath>
</defs>
</svg>
